# xmcd CD database file
#
# Track frame offsets:
#	150
#	10835
#	27242
#	38482
#	57077
#	69585
#	81497
#	92095
#	105315
#	120557
#	130285
#	145222
#	155805
#
# Disc length: 2335 seconds
#
# Revision: 0
# Processed by: cddbd v1.5.1PL0 Copyright (c) Steve Scherf et al.
# Submitted via: CDex 1.51
#
DISCID=a7091d0d
DTITLE=ARETHA FRANKLIN - UNA SERATA CON....
DYEAR=2004
DGENRE=Jazz
TTITLE0=THINK
TTITLE1=I SAY A LITTLE PRAYER
TTITLE2=RESPECT
TTITLE3=DROWN IN MY OWN TEARS
TTITLE4=I NEVER LOVED A MAN (THE WAY I LOVE YOU)
TTITLE5=SOUL SERENADE
TTITLE6=DON'T LET ME LOSE THIS DREAM
TTITLE7=BABY,BABY,BABY
TTITLE8=DR.FEELGOOD(LOVE IS A SERIOUS BUSINESS
TTITLE9=GOOD TIMES
TTITLE10=DO RIGHT WOMAN-DO RIGHT MAN
TTITLE11=SAVE ME
TTITLE12=A CHANGE IS GONNA COME
EXTD=YEAR: 2004
EXTT0=
EXTT1=
EXTT2=
EXTT3=
EXTT4=
EXTT5=
EXTT6=
EXTT7=
EXTT8=
EXTT9=
EXTT10=
EXTT11=
EXTT12=
PLAYORDER=
